<svg id="visual" viewBox="0 0 2400 2000" width="2400" height="2000" xmlns="http://www.w3.org/2000/svg" xmlns:xlink="http://www.w3.org/1999/xlink" version="1.1"><rect x="0" y="0" width="2400" height="2000" fill="#fde6c3"></rect><path d="M0 1270L57.2 1273.2C114.3 1276.3 228.7 1282.7 343 1267.2C457.3 1251.7 571.7 1214.3 686 1207.8C800.3 1201.3 914.7 1225.7 1028.8 1228.5C1143 1231.3 1257 1212.7 1371.2 1225.2C1485.3 1237.7 1599.7 1281.3 1714 1314.2C1828.3 1347 1942.7 1369 2057 1362C2171.3 1355 2285.7 1319 2342.8 1301L2400 1283L2400 2001L2342.8 2001C2285.7 2001 2171.3 2001 2057 2001C1942.7 2001 1828.3 2001 1714 2001C1599.7 2001 1485.3 2001 1371.2 2001C1257 2001 1143 2001 1028.8 2001C914.7 2001 800.3 2001 686 2001C571.7 2001 457.3 2001 343 2001C228.7 2001 114.3 2001 57.2 2001L0 2001Z" fill="#6986fa"></path><path d="M0 1496L57.2 1491.2C114.3 1486.3 228.7 1476.7 343 1448.5C457.3 1420.3 571.7 1373.7 686 1355.3C800.3 1337 914.7 1347 1028.8 1368.8C1143 1390.7 1257 1424.3 1371.2 1439.2C1485.3 1454 1599.7 1450 1714 1459.7C1828.3 1469.3 1942.7 1492.7 2057 1504.8C2171.3 1517 2285.7 1518 2342.8 1518.5L2400 1519L2400 2001L2342.8 2001C2285.7 2001 2171.3 2001 2057 2001C1942.7 2001 1828.3 2001 1714 2001C1599.7 2001 1485.3 2001 1371.2 2001C1257 2001 1143 2001 1028.8 2001C914.7 2001 800.3 2001 686 2001C571.7 2001 457.3 2001 343 2001C228.7 2001 114.3 2001 57.2 2001L0 2001Z" fill="#779cfe"></path><path d="M0 1647L57.2 1623.8C114.3 1600.7 228.7 1554.3 343 1548.3C457.3 1542.3 571.7 1576.7 686 1577.3C800.3 1578 914.7 1545 1028.8 1525.5C1143 1506 1257 1500 1371.2 1515.5C1485.3 1531 1599.7 1568 1714 1588.7C1828.3 1609.3 1942.7 1613.7 2057 1618C2171.3 1622.3 2285.7 1626.7 2342.8 1628.8L2400 1631L2400 2001L2342.8 2001C2285.7 2001 2171.3 2001 2057 2001C1942.7 2001 1828.3 2001 1714 2001C1599.7 2001 1485.3 2001 1371.2 2001C1257 2001 1143 2001 1028.8 2001C914.7 2001 800.3 2001 686 2001C571.7 2001 457.3 2001 343 2001C228.7 2001 114.3 2001 57.2 2001L0 2001Z" fill="#8ab1ff"></path><path d="M0 1772L57.2 1748.7C114.3 1725.3 228.7 1678.7 343 1653.7C457.3 1628.7 571.7 1625.3 686 1651.2C800.3 1677 914.7 1732 1028.8 1754.3C1143 1776.7 1257 1766.3 1371.2 1755C1485.3 1743.7 1599.7 1731.3 1714 1736.7C1828.3 1742 1942.7 1765 2057 1777.2C2171.3 1789.3 2285.7 1790.7 2342.8 1791.3L2400 1792L2400 2001L2342.8 2001C2285.7 2001 2171.3 2001 2057 2001C1942.7 2001 1828.3 2001 1714 2001C1599.7 2001 1485.3 2001 1371.2 2001C1257 2001 1143 2001 1028.8 2001C914.7 2001 800.3 2001 686 2001C571.7 2001 457.3 2001 343 2001C228.7 2001 114.3 2001 57.2 2001L0 2001Z" fill="#a2c5ff"></path><path d="M0 1914L57.2 1905.7C114.3 1897.3 228.7 1880.7 343 1863.5C457.3 1846.3 571.7 1828.7 686 1816.7C800.3 1804.7 914.7 1798.3 1028.8 1799.5C1143 1800.7 1257 1809.3 1371.2 1808.7C1485.3 1808 1599.7 1798 1714 1798C1828.3 1798 1942.7 1808 2057 1815.2C2171.3 1822.3 2285.7 1826.7 2342.8 1828.8L2400 1831L2400 2001L2342.8 2001C2285.7 2001 2171.3 2001 2057 2001C1942.7 2001 1828.3 2001 1714 2001C1599.7 2001 1485.3 2001 1371.2 2001C1257 2001 1143 2001 1028.8 2001C914.7 2001 800.3 2001 686 2001C571.7 2001 457.3 2001 343 2001C228.7 2001 114.3 2001 57.2 2001L0 2001Z" fill="#bdd8ff"></path></svg>