<svg id="visual" viewBox="0 0 2400 2000" width="2400" height="2000" xmlns="http://www.w3.org/2000/svg" xmlns:xlink="http://www.w3.org/1999/xlink" version="1.1"><rect x="0" y="0" width="2400" height="2000" fill="#FFFFFF"></rect><path d="M0 1352L57.2 1353.5C114.3 1355 228.7 1358 343 1350.8C457.3 1343.7 571.7 1326.3 686 1337.5C800.3 1348.7 914.7 1388.3 1028.8 1377.5C1143 1366.7 1257 1305.3 1371.2 1287.5C1485.3 1269.7 1599.7 1295.3 1714 1305.3C1828.3 1315.3 1942.7 1309.7 2057 1299C2171.3 1288.3 2285.7 1272.7 2342.8 1264.8L2400 1257L2400 2001L2342.8 2001C2285.7 2001 2171.3 2001 2057 2001C1942.7 2001 1828.3 2001 1714 2001C1599.7 2001 1485.3 2001 1371.2 2001C1257 2001 1143 2001 1028.8 2001C914.7 2001 800.3 2001 686 2001C571.7 2001 457.3 2001 343 2001C228.7 2001 114.3 2001 57.2 2001L0 2001Z" fill="#6986fa"></path><path d="M0 1430L57.2 1421.5C114.3 1413 228.7 1396 343 1407.2C457.3 1418.3 571.7 1457.7 686 1453.7C800.3 1449.7 914.7 1402.3 1028.8 1404.7C1143 1407 1257 1459 1371.2 1464.7C1485.3 1470.3 1599.7 1429.7 1714 1425.3C1828.3 1421 1942.7 1453 2057 1482.3C2171.3 1511.7 2285.7 1538.3 2342.8 1551.7L2400 1565L2400 2001L2342.8 2001C2285.7 2001 2171.3 2001 2057 2001C1942.7 2001 1828.3 2001 1714 2001C1599.7 2001 1485.3 2001 1371.2 2001C1257 2001 1143 2001 1028.8 2001C914.7 2001 800.3 2001 686 2001C571.7 2001 457.3 2001 343 2001C228.7 2001 114.3 2001 57.2 2001L0 2001Z" fill="#779cfe"></path><path d="M0 1598L57.2 1580.8C114.3 1563.7 228.7 1529.3 343 1507.5C457.3 1485.7 571.7 1476.3 686 1471.7C800.3 1467 914.7 1467 1028.8 1495.3C1143 1523.7 1257 1580.3 1371.2 1590.7C1485.3 1601 1599.7 1565 1714 1562.7C1828.3 1560.3 1942.7 1591.7 2057 1608C2171.3 1624.3 2285.7 1625.7 2342.8 1626.3L2400 1627L2400 2001L2342.8 2001C2285.7 2001 2171.3 2001 2057 2001C1942.7 2001 1828.3 2001 1714 2001C1599.7 2001 1485.3 2001 1371.2 2001C1257 2001 1143 2001 1028.8 2001C914.7 2001 800.3 2001 686 2001C571.7 2001 457.3 2001 343 2001C228.7 2001 114.3 2001 57.2 2001L0 2001Z" fill="#8ab1ff"></path><path d="M0 1714L57.2 1722.5C114.3 1731 228.7 1748 343 1739.2C457.3 1730.3 571.7 1695.7 686 1677.5C800.3 1659.3 914.7 1657.7 1028.8 1652.2C1143 1646.7 1257 1637.3 1371.2 1645.8C1485.3 1654.3 1599.7 1680.7 1714 1697.2C1828.3 1713.7 1942.7 1720.3 2057 1729.3C2171.3 1738.3 2285.7 1749.7 2342.8 1755.3L2400 1761L2400 2001L2342.8 2001C2285.7 2001 2171.3 2001 2057 2001C1942.7 2001 1828.3 2001 1714 2001C1599.7 2001 1485.3 2001 1371.2 2001C1257 2001 1143 2001 1028.8 2001C914.7 2001 800.3 2001 686 2001C571.7 2001 457.3 2001 343 2001C228.7 2001 114.3 2001 57.2 2001L0 2001Z" fill="#a2c5ff"></path><path d="M0 1899L57.2 1895.7C114.3 1892.3 228.7 1885.7 343 1865C457.3 1844.3 571.7 1809.7 686 1813.7C800.3 1817.7 914.7 1860.3 1028.8 1864.5C1143 1868.7 1257 1834.3 1371.2 1809.7C1485.3 1785 1599.7 1770 1714 1771.8C1828.3 1773.7 1942.7 1792.3 2057 1815.3C2171.3 1838.3 2285.7 1865.7 2342.8 1879.3L2400 1893L2400 2001L2342.8 2001C2285.7 2001 2171.3 2001 2057 2001C1942.7 2001 1828.3 2001 1714 2001C1599.7 2001 1485.3 2001 1371.2 2001C1257 2001 1143 2001 1028.8 2001C914.7 2001 800.3 2001 686 2001C571.7 2001 457.3 2001 343 2001C228.7 2001 114.3 2001 57.2 2001L0 2001Z" fill="#bdd8ff"></path></svg>