<svg id="visual" viewBox="0 0 900 600" width="900" height="600" xmlns="http://www.w3.org/2000/svg" xmlns:xlink="http://www.w3.org/1999/xlink" version="1.1"><rect x="0" y="0" width="900" height="600" fill="#FDE6C3"></rect><path d="M0 363L21.5 375.8C43 388.7 86 414.3 128.8 428C171.7 441.7 214.3 443.3 257.2 429.3C300 415.3 343 385.7 385.8 384.2C428.7 382.7 471.3 409.3 514.2 411.3C557 413.3 600 390.7 642.8 383.3C685.7 376 728.3 384 771.2 396.8C814 409.7 857 427.3 878.5 436.2L900 445L900 601L878.5 601C857 601 814 601 771.2 601C728.3 601 685.7 601 642.8 601C600 601 557 601 514.2 601C471.3 601 428.7 601 385.8 601C343 601 300 601 257.2 601C214.3 601 171.7 601 128.8 601C86 601 43 601 21.5 601L0 601Z" fill="#fabf69"></path><path d="M0 428L21.5 428C43 428 86 428 128.8 430.5C171.7 433 214.3 438 257.2 446C300 454 343 465 385.8 461.8C428.7 458.7 471.3 441.3 514.2 441.2C557 441 600 458 642.8 456.5C685.7 455 728.3 435 771.2 421.8C814 408.7 857 402.3 878.5 399.2L900 396L900 601L878.5 601C857 601 814 601 771.2 601C728.3 601 685.7 601 642.8 601C600 601 557 601 514.2 601C471.3 601 428.7 601 385.8 601C343 601 300 601 257.2 601C214.3 601 171.7 601 128.8 601C86 601 43 601 21.5 601L0 601Z" fill="#f7a85e"></path><path d="M0 460L21.5 466.8C43 473.7 86 487.3 128.8 489.5C171.7 491.7 214.3 482.3 257.2 481C300 479.7 343 486.3 385.8 480.8C428.7 475.3 471.3 457.7 514.2 451.3C557 445 600 450 642.8 458.3C685.7 466.7 728.3 478.3 771.2 477.5C814 476.7 857 463.3 878.5 456.7L900 450L900 601L878.5 601C857 601 814 601 771.2 601C728.3 601 685.7 601 642.8 601C600 601 557 601 514.2 601C471.3 601 428.7 601 385.8 601C343 601 300 601 257.2 601C214.3 601 171.7 601 128.8 601C86 601 43 601 21.5 601L0 601Z" fill="#f29157"></path><path d="M0 502L21.5 501C43 500 86 498 128.8 502C171.7 506 214.3 516 257.2 517C300 518 343 510 385.8 503.7C428.7 497.3 471.3 492.7 514.2 491.2C557 489.7 600 491.3 642.8 493.3C685.7 495.3 728.3 497.7 771.2 504C814 510.3 857 520.7 878.5 525.8L900 531L900 601L878.5 601C857 601 814 601 771.2 601C728.3 601 685.7 601 642.8 601C600 601 557 601 514.2 601C471.3 601 428.7 601 385.8 601C343 601 300 601 257.2 601C214.3 601 171.7 601 128.8 601C86 601 43 601 21.5 601L0 601Z" fill="#eb7a54"></path><path d="M0 573L21.5 566.5C43 560 86 547 128.8 539.3C171.7 531.7 214.3 529.3 257.2 535.7C300 542 343 557 385.8 560.5C428.7 564 471.3 556 514.2 553.5C557 551 600 554 642.8 553.3C685.7 552.7 728.3 548.3 771.2 546.5C814 544.7 857 545.3 878.5 545.7L900 546L900 601L878.5 601C857 601 814 601 771.2 601C728.3 601 685.7 601 642.8 601C600 601 557 601 514.2 601C471.3 601 428.7 601 385.8 601C343 601 300 601 257.2 601C214.3 601 171.7 601 128.8 601C86 601 43 601 21.5 601L0 601Z" fill="#e26353"></path></svg>